<svg xmlns="http://www.w3.org/2000/svg" viewBox="0 0 800 450" preserveAspectRatio="xMidYMid slice">
  <defs>
    <radialGradient id="bgCenter" cx="0.5" cy="0.5" r="0.8">
      <stop offset="0%" stop-color="#2d1b69"/>
      <stop offset="30%" stop-color="#1a0a3a"/>
      <stop offset="70%" stop-color="#0a0520"/>
      <stop offset="100%" stop-color="#050210"/>
    </radialGradient>
    <radialGradient id="portalOuter" cx="0.5" cy="0.5" r="0.5">
      <stop offset="0%" stop-color="#7b2ff7" stop-opacity="0"/>
      <stop offset="30%" stop-color="#7b2ff7" stop-opacity="0.3"/>
      <stop offset="60%" stop-color="#ff00ff" stop-opacity="0.5"/>
      <stop offset="85%" stop-color="#00ffff" stop-opacity="0.6"/>
      <stop offset="100%" stop-color="#ffffff" stop-opacity="0.8"/>
    </radialGradient>
    <radialGradient id="portalInner" cx="0.5" cy="0.5" r="0.5">
      <stop offset="0%" stop-color="#ffffff" stop-opacity="0.9"/>
      <stop offset="20%" stop-color="#00ffff" stop-opacity="0.7"/>
      <stop offset="50%" stop-color="#ff00ff" stop-opacity="0.5"/>
      <stop offset="100%" stop-color="#7b2ff7" stop-opacity="0"/>
    </radialGradient>
    <radialGradient id="core" cx="0.5" cy="0.5" r="0.5">
      <stop offset="0%" stop-color="#ffffff"/>
      <stop offset="30%" stop-color="#e0d0ff"/>
      <stop offset="70%" stop-color="#8b5cf6"/>
      <stop offset="100%" stop-color="#4c1d95" stop-opacity="0"/>
    </radialGradient>
    <filter id="glow" x="-50%" y="-50%" width="200%" height="200%">
      <feGaussianBlur stdDeviation="4"/>
    </filter>
    <filter id="strongGlow" x="-50%" y="-50%" width="200%" height="200%">
      <feGaussianBlur stdDeviation="8"/>
    </filter>
  </defs>
  
  <rect width="800" height="450" fill="url(#bgCenter)"/>
  
  <g opacity="0.6">
    <circle cx="100" cy="80" r="1.5" fill="white"/>
    <circle cx="200" cy="50" r="1" fill="white" opacity="0.7"/>
    <circle cx="350" cy="100" r="2" fill="white" opacity="0.8"/>
    <circle cx="500" cy="40" r="1" fill="white"/>
    <circle cx="620" cy="90" r="1.5" fill="white" opacity="0.6"/>
    <circle cx="720" cy="60" r="1" fill="white" opacity="0.8"/>
    <circle cx="50" cy="200" r="1" fill="white" opacity="0.5"/>
    <circle cx="750" cy="300" r="1.5" fill="white" opacity="0.7"/>
    <circle cx="150" cy="350" r="1" fill="white" opacity="0.4"/>
    <circle cx="680" cy="380" r="1" fill="white" opacity="0.6"/>
    <circle cx="300" cy="380" r="1" fill="white" opacity="0.5"/>
  </g>
  
  <g opacity="0.3">
    <circle cx="100" cy="80" r="4" fill="#b794f6" filter="url(#glow)"/>
    <circle cx="350" cy="100" r="6" fill="#9f7aea" filter="url(#glow)"/>
    <circle cx="620" cy="90" r="5" fill="#b794f6" filter="url(#glow)"/>
  </g>
  
  <ellipse cx="400" cy="225" rx="200" ry="120" fill="url(#portalOuter)"/>
  
  <ellipse cx="400" cy="225" rx="150" ry="90" fill="url(#portalInner)"/>
  
  <g transform="translate(400, 225)">
    <ellipse cx="0" cy="0" rx="130" ry="75" fill="none" stroke="#00ffff" stroke-width="2" opacity="0.8" filter="url(#glow)"/>
    <ellipse cx="0" cy="0" rx="110" ry="62" fill="none" stroke="#ff00ff" stroke-width="1.5" opacity="0.7" filter="url(#glow)"/>
    <ellipse cx="0" cy="0" rx="90" ry="50" fill="none" stroke="#00ffff" stroke-width="1" opacity="0.9"/>
    <ellipse cx="0" cy="0" rx="70" ry="38" fill="none" stroke="#ff66ff" stroke-width="1.5" opacity="0.6" filter="url(#glow)"/>
    <ellipse cx="0" cy="0" rx="50" ry="28" fill="none" stroke="#00ffff" stroke-width="1" opacity="0.8"/>
    <ellipse cx="0" cy="0" rx="30" ry="18" fill="none" stroke="#ffffff" stroke-width="1" opacity="0.9"/>
    
    <ellipse cx="0" cy="0" rx="120" ry="70" fill="none" stroke="#7b2ff7" stroke-width="3" opacity="0.5" filter="url(#strongGlow)"/>
    <ellipse cx="0" cy="0" rx="80" ry="45" fill="none" stroke="#00ffff" stroke-width="2" opacity="0.6" filter="url(#glow)"/>
  </g>
  
  <circle cx="400" cy="225" r="35" fill="url(#core)" filter="url(#strongGlow)"/>
  <circle cx="400" cy="225" r="20" fill="white" opacity="0.95"/>
  <circle cx="395" cy="220" r="8" fill="#e0d0ff" opacity="0.8"/>
  <circle cx="405" cy="230" r="5" fill="#ff00ff" opacity="0.6"/>
  
  <g transform="translate(400, 225)" opacity="0.8">
    <ellipse cx="0" cy="0" rx="145" ry="85" fill="none" stroke="#00ffff" stroke-width="0.5" opacity="0.6"/>
    <ellipse cx="0" cy="0" rx="160" ry="95" fill="none" stroke="#ff00ff" stroke-width="0.5" opacity="0.4"/>
    <ellipse cx="0" cy="0" rx="175" ry="105" fill="none" stroke="#7b2ff7" stroke-width="0.5" opacity="0.3"/>
  </g>
  
  <g opacity="0.5">
    <line x1="400" y1="50" x2="400" y2="100" stroke="#7b2ff7" stroke-width="1" filter="url(#glow)"/>
    <line x1="250" y1="80" x2="300" y2="140" stroke="#ff00ff" stroke-width="1" opacity="0.6"/>
    <line x1="550" y1="80" x2="500" y2="140" stroke="#00ffff" stroke-width="1" opacity="0.6"/>
    <line x1="150" y1="350" x2="280" y2="280" stroke="#7b2ff7" stroke-width="1" opacity="0.5"/>
    <line x1="650" y1="350" x2="520" y2="280" stroke="#00ffff" stroke-width="1" opacity="0.5"/>
  </g>
  
  <g transform="translate(400, 225)">
    <g opacity="0.7">
      <line x1="-150" y1="0" x2="-180" y2="-15" stroke="#00ffff" stroke-width="0.5"/>
      <line x1="-150" y1="0" x2="-180" y2="15" stroke="#ff00ff" stroke-width="0.5"/>
      <line x1="150" y1="0" x2="180" y2="-15" stroke="#ff00ff" stroke-width="0.5"/>
      <line x1="150" y1="0" x2="180" y2="15" stroke="#00ffff" stroke-width="0.5"/>
      <line x1="0" y1="-90" x2="0" y2="-120" stroke="#7b2ff7" stroke-width="0.5"/>
      <line x1="0" y1="90" x2="0" y2="120" stroke="#7b2ff7" stroke-width="0.5"/>
    </g>
  </g>
  
  <g opacity="0.3">
    <circle cx="200" cy="350" r="2" fill="#00ffff" filter="url(#glow)"/>
    <circle cx="600" cy="380" r="2" fill="#ff00ff" filter="url(#glow)"/>
    <circle cx="150" cy="400" r="1.5" fill="#7b2ff7" filter="url(#glow)"/>
  </g>
  
  <text x="400" y="420" text-anchor="middle" fill="#b794f6" font-size="28" font-family="'Segoe UI', sans-serif" font-weight="bold" opacity="0.9" filter="url(#glow)">DIMENSION PORTAL</text>
  <text x="400" y="420" text-anchor="middle" fill="#e0d0ff" font-size="28" font-family="'Segoe UI', sans-serif" font-weight="bold">DIMENSION PORTAL</text>
</svg>